<svg width="600" height="400" viewBox="0 0 600 400" fill="none" xmlns="http://www.w3.org/2000/svg">
  <rect width="600" height="400" rx="8" fill="#111827"/>
  <rect x="50" y="50" width="500" height="300" rx="8" stroke="#06B6D4" stroke-width="2"/>
  
  <circle cx="200" cy="150" r="50" fill="#06B6D4" opacity="0.2" stroke="#06B6D4" stroke-width="1"/>
  <circle cx="200" cy="135" r="25" stroke="#06B6D4" stroke-width="1"/>
  <path d="M175 185C175 173.9 186.2 165 200 165C213.8 165 225 173.9 225 185V195H175V185Z" fill="#06B6D4" opacity="0.2" stroke="#06B6D4" stroke-width="1"/>
  
  <circle cx="400" cy="150" r="50" fill="#06B6D4" opacity="0.2" stroke="#06B6D4" stroke-width="1"/>
  <circle cx="400" cy="135" r="25" stroke="#06B6D4" stroke-width="1"/>
  <path d="M375 185C375 173.9 386.2 165 400 165C413.8 165 425 173.9 425 185V195H375V185Z" fill="#06B6D4" opacity="0.2" stroke="#06B6D4" stroke-width="1"/>
  
  <rect x="150" y="250" width="300" height="40" rx="4" fill="#06B6D4" opacity="0.1"/>
  <text x="230" y="275" font-family="Arial" font-size="16" fill="white">MEET OUR TEAM</text>
</svg> 