<svg width="800" height="800" viewBox="0 0 800 800" fill="none" xmlns="http://www.w3.org/2000/svg">
  <!-- Horizontal Lines -->
  <path d="M50 100H750" stroke="#06B6D4" stroke-width="1" stroke-opacity="0.1"/>
  <path d="M50 200H750" stroke="#06B6D4" stroke-width="1" stroke-opacity="0.1"/>
  <path d="M50 300H750" stroke="#06B6D4" stroke-width="1" stroke-opacity="0.1"/>
  <path d="M50 400H750" stroke="#06B6D4" stroke-width="1" stroke-opacity="0.1"/>
  <path d="M50 500H750" stroke="#06B6D4" stroke-width="1" stroke-opacity="0.1"/>
  <path d="M50 600H750" stroke="#06B6D4" stroke-width="1" stroke-opacity="0.1"/>
  <path d="M50 700H750" stroke="#06B6D4" stroke-width="1" stroke-opacity="0.1"/>

  <!-- Vertical Lines -->
  <path d="M100 50V750" stroke="#06B6D4" stroke-width="1" stroke-opacity="0.1"/>
  <path d="M200 50V750" stroke="#06B6D4" stroke-width="1" stroke-opacity="0.1"/>
  <path d="M300 50V750" stroke="#06B6D4" stroke-width="1" stroke-opacity="0.1"/>
  <path d="M400 50V750" stroke="#06B6D4" stroke-width="1" stroke-opacity="0.1"/>
  <path d="M500 50V750" stroke="#06B6D4" stroke-width="1" stroke-opacity="0.1"/>
  <path d="M600 50V750" stroke="#06B6D4" stroke-width="1" stroke-opacity="0.1"/>
  <path d="M700 50V750" stroke="#06B6D4" stroke-width="1" stroke-opacity="0.1"/>

  <!-- Circuit Elements -->
  <circle cx="100" cy="100" r="4" fill="#06B6D4" fill-opacity="0.3"/>
  <circle cx="300" cy="100" r="4" fill="#06B6D4" fill-opacity="0.3"/>
  <circle cx="500" cy="100" r="4" fill="#06B6D4" fill-opacity="0.3"/>
  <circle cx="700" cy="100" r="4" fill="#06B6D4" fill-opacity="0.3"/>
  
  <circle cx="200" cy="200" r="4" fill="#06B6D4" fill-opacity="0.3"/>
  <circle cx="400" cy="200" r="4" fill="#06B6D4" fill-opacity="0.3"/>
  <circle cx="600" cy="200" r="4" fill="#06B6D4" fill-opacity="0.3"/>
  
  <circle cx="100" cy="300" r="4" fill="#06B6D4" fill-opacity="0.3"/>
  <circle cx="300" cy="300" r="4" fill="#06B6D4" fill-opacity="0.3"/>
  <circle cx="500" cy="300" r="4" fill="#06B6D4" fill-opacity="0.3"/>
  <circle cx="700" cy="300" r="4" fill="#06B6D4" fill-opacity="0.3"/>
  
  <circle cx="200" cy="400" r="4" fill="#06B6D4" fill-opacity="0.3"/>
  <circle cx="400" cy="400" r="4" fill="#06B6D4" fill-opacity="0.3"/>
  <circle cx="600" cy="400" r="4" fill="#06B6D4" fill-opacity="0.3"/>
  
  <circle cx="100" cy="500" r="4" fill="#06B6D4" fill-opacity="0.3"/>
  <circle cx="300" cy="500" r="4" fill="#06B6D4" fill-opacity="0.3"/>
  <circle cx="500" cy="500" r="4" fill="#06B6D4" fill-opacity="0.3"/>
  <circle cx="700" cy="500" r="4" fill="#06B6D4" fill-opacity="0.3"/>
  
  <circle cx="200" cy="600" r="4" fill="#06B6D4" fill-opacity="0.3"/>
  <circle cx="400" cy="600" r="4" fill="#06B6D4" fill-opacity="0.3"/>
  <circle cx="600" cy="600" r="4" fill="#06B6D4" fill-opacity="0.3"/>
  
  <circle cx="100" cy="700" r="4" fill="#06B6D4" fill-opacity="0.3"/>
  <circle cx="300" cy="700" r="4" fill="#06B6D4" fill-opacity="0.3"/>
  <circle cx="500" cy="700" r="4" fill="#06B6D4" fill-opacity="0.3"/>
  <circle cx="700" cy="700" r="4" fill="#06B6D4" fill-opacity="0.3"/>

  <!-- Circuit Paths -->
  <path d="M100 100H300V200H400V300H500V400H600V500H700" stroke="#06B6D4" stroke-width="2" stroke-opacity="0.2"/>
  <path d="M200 200V400H100V500H300V600H400V700" stroke="#06B6D4" stroke-width="2" stroke-opacity="0.2"/>
  <path d="M500 300H700V500H500V700" stroke="#06B6D4" stroke-width="2" stroke-opacity="0.2"/>
  <path d="M400 200H600V400H400V600" stroke="#06B6D4" stroke-width="2" stroke-opacity="0.2"/>
  <path d="M300 100V300H100V700" stroke="#06B6D4" stroke-width="2" stroke-opacity="0.2"/>
</svg> 